<mxfile host="app.diagrams.net" modified="2022-02-15T16:17:45.226Z" agent="5.0 (Windows NT 10.0; Win64; x64) AppleWebKit/537.36 (KHTML, like Gecko) Chrome/98.0.4758.82 Safari/537.36" etag="ssi3jXQEEHI_bgiXfBiy" version="16.5.6" type="github">
  <diagram id="7BmzXcPXSRyOhI3S4v2m" name="Page-1">
    <mxGraphModel dx="822" dy="1634" grid="1" gridSize="10" guides="1" tooltips="1" connect="1" arrows="1" fold="1" page="1" pageScale="1" pageWidth="850" pageHeight="1100" math="0" shadow="0">
      <root>
        <mxCell id="0" />
        <mxCell id="1" parent="0" />
        <mxCell id="wWuZftM7gVZBgc2AnNi_-6" style="edgeStyle=orthogonalEdgeStyle;rounded=0;orthogonalLoop=1;jettySize=auto;html=1;exitX=0;exitY=0.5;exitDx=0;exitDy=0;entryX=0.5;entryY=1;entryDx=0;entryDy=0;entryPerimeter=0;" edge="1" parent="1" source="wWuZftM7gVZBgc2AnNi_-1" target="wWuZftM7gVZBgc2AnNi_-2">
          <mxGeometry relative="1" as="geometry" />
        </mxCell>
        <mxCell id="wWuZftM7gVZBgc2AnNi_-1" value="" style="rounded=1;whiteSpace=wrap;html=1;" vertex="1" parent="1">
          <mxGeometry x="580" y="330" width="120" height="60" as="geometry" />
        </mxCell>
        <mxCell id="wWuZftM7gVZBgc2AnNi_-4" style="edgeStyle=orthogonalEdgeStyle;rounded=0;orthogonalLoop=1;jettySize=auto;html=1;exitX=1;exitY=0;exitDx=0;exitDy=105;exitPerimeter=0;entryX=0.13;entryY=0.77;entryDx=0;entryDy=0;entryPerimeter=0;" edge="1" parent="1" source="wWuZftM7gVZBgc2AnNi_-2" target="wWuZftM7gVZBgc2AnNi_-3">
          <mxGeometry relative="1" as="geometry" />
        </mxCell>
        <mxCell id="wWuZftM7gVZBgc2AnNi_-2" value="" style="shape=cylinder3;whiteSpace=wrap;html=1;boundedLbl=1;backgroundOutline=1;size=15;" vertex="1" parent="1">
          <mxGeometry x="260" y="210" width="60" height="150" as="geometry" />
        </mxCell>
        <mxCell id="wWuZftM7gVZBgc2AnNi_-5" style="edgeStyle=orthogonalEdgeStyle;rounded=0;orthogonalLoop=1;jettySize=auto;html=1;exitX=0.55;exitY=0.95;exitDx=0;exitDy=0;exitPerimeter=0;" edge="1" parent="1" source="wWuZftM7gVZBgc2AnNi_-3" target="wWuZftM7gVZBgc2AnNi_-1">
          <mxGeometry relative="1" as="geometry" />
        </mxCell>
        <mxCell id="wWuZftM7gVZBgc2AnNi_-3" value="" style="ellipse;shape=cloud;whiteSpace=wrap;html=1;" vertex="1" parent="1">
          <mxGeometry x="425" y="190" width="120" height="80" as="geometry" />
        </mxCell>
      </root>
    </mxGraphModel>
  </diagram>
</mxfile>
